<?xml version="1.0" encoding="UTF-8"?> <!-- Generator: Adobe Illustrator 24.2.1, SVG Export Plug-In . SVG Version: 6.00 Build 0) --> <svg xmlns="http://www.w3.org/2000/svg" xmlns:xlink="http://www.w3.org/1999/xlink" id="Layer_1" x="0px" y="0px" viewBox="0 0 60 60" style="enable-background:new 0 0 60 60;" xml:space="preserve"> <style type="text/css"> .st0{fill:#FFFFFF;} </style> <path d="M30,0c16.6,0,30,13.4,30,30S46.6,60,30,60S0,46.6,0,30S13.4,0,30,0z"></path> <path class="st0" d="M47.7,18.8c-0.7-0.7-1.6-1.1-2.6-1.3c-1.2-0.2-2.5,0.7-3.3,1.2c-0.8,0.6-2.5,2-3.2,2.6 c-0.7,0.6-2.3,0.9-5.1,2.5c-2.7,1.6-13.4,8.3-13.4,8.3h2.7l-12.4,6.3h1.2L10,39.8c1,0.2,2,0.1,2.9-0.4v0.4c0,0,14.7-5.7,17.6-4.2 L28.7,36c0.2,0,2.9,0.2,2.9,0.2c0.2,1.1,0.8,2.2,1.8,2.8c1.7,1.1,1.7,1.7,1.7,1.7s-0.8,0.3-0.8,0.8c1.6-0.5,3.2-0.5,4.7,0 c0,0-0.1-0.5-1.2-0.8c-1.2-0.5-2.2-1.2-2.9-2.3c-0.7-0.9-0.9-2-0.5-3.1c0.4-1.1,1.8-1.6,4.7-3.1c3.4-1.7,4.2-3,4.7-4.1 c0.4-1.1,1.2-3,1.6-4c0.3-0.9,0.9-1.6,1.7-2.3c0.9-0.5,1.9-0.9,2.8-1.2C50.2,20.7,48.3,19.2,47.7,18.8z"></path> </svg> 