<?xml version="1.0" encoding="UTF-8"?> <!-- Generator: Adobe Illustrator 24.2.1, SVG Export Plug-In . SVG Version: 6.00 Build 0) --> <svg xmlns="http://www.w3.org/2000/svg" xmlns:xlink="http://www.w3.org/1999/xlink" id="Layer_1" x="0px" y="0px" viewBox="0 0 60 60" style="enable-background:new 0 0 60 60;" xml:space="preserve"> <style type="text/css"> .st0{fill:#E6007A;} .st1{fill:#FFFFFF;} </style> <path class="st0" d="M30,0c16.6,0,30,13.4,30,30S46.6,60,30,60S0,46.6,0,30S13.4,0,30,0z"></path> <path class="st1" d="M30.2,19.8c3.6,0,6.5-1.7,6.5-3.8c0-2.1-2.9-3.8-6.5-3.8s-6.5,1.7-6.5,3.8C23.7,18.1,26.6,19.8,30.2,19.8z"></path> <path class="st1" d="M30.2,48.5c3.6,0,6.5-1.7,6.5-3.8c0-2.1-2.9-3.8-6.5-3.8s-6.5,1.7-6.5,3.8C23.7,46.8,26.6,48.5,30.2,48.5z"></path> <path class="st1" d="M21.1,25.1c1.8-3.1,1.8-6.5,0-7.6c-1.8-1.1-4.8,0.6-6.6,3.8c-1.8,3.1-1.8,6.5,0,7.6 C16.4,29.9,19.3,28.2,21.1,25.1z"></path> <path class="st1" d="M45.9,39.4c1.8-3.1,1.8-6.5,0-7.6c-1.8-1.1-4.8,0.6-6.6,3.8c-1.8,3.1-1.8,6.5,0,7.6 C41.2,44.2,44.1,42.5,45.9,39.4z"></path> <path class="st1" d="M21.1,43.2c1.8-1.1,1.8-4.4,0-7.6c-1.8-3.1-4.7-4.8-6.6-3.8c-1.8,1.1-1.8,4.4,0,7.6 C16.3,42.5,19.3,44.2,21.1,43.2z"></path> <path class="st1" d="M45.9,28.8c1.8-1.1,1.8-4.4,0-7.6c-1.8-3.1-4.7-4.8-6.6-3.8c-1.8,1.1-1.8,4.4,0,7.6 C41.2,28.2,44.1,29.9,45.9,28.8z"></path> </svg> 